<?xml version="1.0" encoding="UTF-8" standalone="no"?>
<!-- Created with Inkscape (http://www.inkscape.org/) -->

<svg
   width="65.911308mm"
   height="52.474632mm"
   viewBox="0 0 65.911308 52.474632"
   version="1.1"
   id="svg1094"
   inkscape:version="1.2.2 (1:1.2.2+202305151914+b0a8486541)"
   sodipodi:docname="sis_phase.svg"
   xmlns:inkscape="http://www.inkscape.org/namespaces/inkscape"
   xmlns:sodipodi="http://sodipodi.sourceforge.net/DTD/sodipodi-0.dtd"
   xmlns="http://www.w3.org/2000/svg"
   xmlns:svg="http://www.w3.org/2000/svg">
  <sodipodi:namedview
     id="namedview1096"
     pagecolor="#ffffff"
     bordercolor="#000000"
     borderopacity="0.25"
     inkscape:showpageshadow="2"
     inkscape:pageopacity="0.0"
     inkscape:pagecheckerboard="0"
     inkscape:deskcolor="#d1d1d1"
     inkscape:document-units="mm"
     showgrid="false"
     inkscape:zoom="3.0420001"
     inkscape:cx="121.13741"
     inkscape:cy="92.044705"
     inkscape:window-width="1536"
     inkscape:window-height="811"
     inkscape:window-x="0"
     inkscape:window-y="27"
     inkscape:window-maximized="1"
     inkscape:current-layer="layer1" />
  <defs
     id="defs1091">
    <rect
       x="1.617858"
       y="73.753831"
       width="13.586035"
       height="28.385631"
       id="rect1470" />
  </defs>
  <g
     inkscape:label="Layer 1"
     inkscape:groupmode="layer"
     id="layer1"
     transform="translate(-47.369344,-122.26269)">
    <path
       d="M 51.586175,168.23704 H 81.401541 V 123.89428 H 51.586175 Z"
       style="fill:#f9ecd3;fill-opacity:1;fill-rule:nonzero;stroke:none;stroke-width:0.352778"
       id="path1031" />
    <path
       d="M 81.401541,168.23704 H 111.86214 V 123.89428 H 81.401541 Z"
       style="fill:#e3e9cc;fill-opacity:1;fill-rule:nonzero;stroke:none;stroke-width:0.352778"
       id="path1033" />
    <g
       id="g1037"
       transform="matrix(0.35277777,0,0,-0.35277777,81.649897,168.23704)">
      <path
         d="m 0,0 c 0,0 -1.644,35.2 8.232,58.546 10.219,24.157 36.875,48.591 75.456,57.299"
         style="fill:none;stroke:#ed6934;stroke-width:1.934;stroke-linecap:butt;stroke-linejoin:miter;stroke-miterlimit:10;stroke-dasharray:none;stroke-opacity:1"
         id="path1035" />
    </g>
    <g
       id="g1045"
       transform="matrix(0.35277777,0,0,-0.35277777,81.72398,173.20415)">
      <path
         d="M 0,0 H 1.514 L 0.333,6.321 c -0.37,1.975 -0.884,2.924 -2.128,2.924 -0.167,0 -0.346,-0.026 -0.474,-0.065 L -2.563,8.039 h 0.217 c 0.718,0 1.026,-0.666 1.193,-1.59 0.012,-0.102 0.012,-0.179 0.012,-0.243 0,-0.077 -0.039,-0.218 -0.116,-0.372 L -4.334,0 h 1.577 l 1.553,3.282 c 0.179,0.398 0.346,0.821 0.5,1.18 h 0.063 C -0.603,4.039 -0.538,3.629 -0.486,3.295 L 0,0"
         style="fill:#000000;fill-opacity:1;fill-rule:nonzero;stroke:none"
         id="path1043" />
    </g>
    <g
       id="g1049"
       transform="matrix(0.35277777,0,0,-0.35277777,83.512563,174.43146)">
      <path
         d="m 0,0 c -0.178,-0.076 -0.404,-0.142 -0.724,-0.142 -0.628,0 -1.114,0.426 -1.114,1.173 -0.008,0.665 0.411,1.182 1.114,1.182 0.329,0 0.546,-0.076 0.694,-0.143 l 0.165,0.688 c -0.21,0.098 -0.553,0.172 -0.889,0.172 -1.28,0 -2.027,-0.851 -2.027,-1.943 0,-1.129 0.74,-1.854 1.876,-1.854 0.456,0 0.838,0.097 1.032,0.187 L 0,0"
         style="fill:#000000;fill-opacity:1;fill-rule:nonzero;stroke:none"
         id="path1047" />
    </g>
    <g
       id="g1053"
       transform="matrix(0.35277777,0,0,-0.35277777,112.4922,173.20485)">
      <path
         d="M 0,0 H 1.514 L 0.333,6.322 c -0.372,1.974 -0.884,2.923 -2.128,2.923 -0.167,0 -0.346,-0.026 -0.474,-0.065 L -2.564,8.039 h 0.218 c 0.718,0 1.026,-0.667 1.193,-1.59 0.012,-0.102 0.012,-0.179 0.012,-0.243 0,-0.077 -0.039,-0.217 -0.116,-0.372 L -4.334,0 h 1.577 l 1.552,3.282 c 0.18,0.398 0.347,0.821 0.5,1.18 h 0.064 C -0.603,4.039 -0.539,3.629 -0.486,3.295 L 0,0"
         style="fill:#000000;fill-opacity:1;fill-rule:nonzero;stroke:none"
         id="path1051" />
    </g>
    <g
       id="g1057"
       transform="matrix(0.35277777,0,0,-0.35277777,51.586175,168.23704)">
      <path
         d="M 0,0 H 171.25"
         style="fill:none;stroke:#000000;stroke-width:1.012;stroke-linecap:butt;stroke-linejoin:miter;stroke-miterlimit:10;stroke-dasharray:none;stroke-opacity:1"
         id="path1055" />
    </g>
    <g
       id="g1061"
       transform="matrix(0.35277777,0,0,-0.35277777,111.73831,169.1278)">
      <path
         d="M 0,0 4.372,2.524 0,5.049 V 0"
         style="fill:#000000;fill-opacity:1;fill-rule:nonzero;stroke:none"
         id="path1059" />
    </g>
    <g
       id="g1065"
       transform="matrix(0.35277777,0,0,-0.35277777,51.586175,168.3591)">
      <path
         d="M 0,0 V 127.033"
         style="fill:none;stroke:#000000;stroke-width:1.012;stroke-linecap:butt;stroke-linejoin:miter;stroke-miterlimit:10;stroke-dasharray:none;stroke-opacity:1"
         id="path1063" />
    </g>
    <g
       id="g1069"
       transform="matrix(0.35277777,0,0,-0.35277777,52.476586,123.80503)">
      <path
         d="M 0,0 -2.524,4.372 -5.049,0 H 0"
         style="fill:#000000;fill-opacity:1;fill-rule:nonzero;stroke:none"
         id="path1067" />
    </g>
    <g
       id="g1073"
       transform="matrix(0.35277777,0,0,-0.35277777,59.914553,146.41632)">
      <path
         d="m 0,0 v 1.821 c 0,0.972 -0.017,1.708 -0.058,2.396 h 0.026 C 0.202,3.61 0.525,2.946 0.834,2.38 L 2.104,0 H 3.067 V 5.456 H 2.193 V 3.667 c 0,-0.882 0.033,-1.627 0.09,-2.348 H 2.267 C 2.04,1.894 1.731,2.55 1.425,3.116 L 0.162,5.456 H -0.874 V 0 Z m 5.862,-0.081 c 0.867,0 1.83,0.591 1.83,2.08 0,1.231 -0.72,2.024 -1.789,2.024 -1.044,0 -1.853,-0.737 -1.853,-2.072 0,-1.287 0.777,-2.032 1.804,-2.032 z m 0.01,0.704 c -0.543,0 -0.843,0.615 -0.843,1.344 0,0.631 0.227,1.352 0.851,1.352 0.615,0 0.833,-0.737 0.833,-1.344 0,-0.728 -0.308,-1.352 -0.833,-1.352 z m 7.57,1.085 c 0.018,0.089 0.034,0.235 0.034,0.429 0,0.923 -0.421,1.886 -1.562,1.886 -1.143,0 -1.789,-0.963 -1.789,-2.113 0,-1.206 0.687,-1.983 1.886,-1.983 0.509,0 0.955,0.097 1.261,0.235 l -0.136,0.664 c -0.267,-0.097 -0.568,-0.17 -0.981,-0.17 -0.582,0 -1.092,0.291 -1.108,1.052 z M 11.047,2.38 c 0.033,0.421 0.267,0.971 0.802,0.971 0.557,0 0.736,-0.526 0.728,-0.971 z m 3.338,-3.967 h 0.955 v 2 h 0.015 c 0.17,-0.283 0.527,-0.494 0.981,-0.494 0.816,0 1.627,0.664 1.627,2.097 0,1.214 -0.641,2.007 -1.515,2.007 -0.517,0 -0.93,-0.227 -1.189,-0.648 h -0.016 l -0.05,0.567 h -0.841 c 0.017,-0.356 0.033,-0.769 0.033,-1.287 z m 0.955,3.91 0.032,0.259 c 0.089,0.389 0.413,0.672 0.761,0.672 0.575,0 0.866,-0.558 0.866,-1.279 0,-0.753 -0.308,-1.303 -0.882,-1.303 -0.341,0 -0.648,0.226 -0.745,0.623 -0.024,0.089 -0.032,0.186 -0.032,0.292 z m 4.51,1.619 H 18.89489 V -4e-4 H 19.85 Z m -0.476,0.559 c 0.322,0 0.534,0.226 0.534,0.526 0,0.307 -0.212,0.526 -0.526,0.526 -0.317,0 -0.535,-0.227 -0.535,-0.526 0,-0.3 0.21,-0.526 0.517,-0.526 z m 4.015,1.206 v -2.17 h -0.015 c -0.162,0.284 -0.502,0.486 -0.981,0.486 -0.849,0 -1.602,-0.753 -1.602,-2.088 0,-1.206 0.647,-2.016 1.538,-2.016 0.51,0 0.931,0.267 1.142,0.656 h 0.015 L 23.535,0 h 0.842 C 24.36,0.275 24.345,0.712 24.345,1.093 v 4.614 z m 0,-4.096 c 0,-0.097 -0.007,-0.194 -0.033,-0.275 -0.096,-0.429 -0.403,-0.648 -0.744,-0.648 -0.543,0 -0.857,0.526 -0.857,1.271 0,0.72 0.291,1.303 0.874,1.303 0.387,0 0.672,-0.307 0.745,-0.672 l 0.015,-0.251 z m 5.215,0.097 c 0.017,0.089 0.034,0.235 0.034,0.429 0,0.923 -0.421,1.886 -1.564,1.886 -1.141,0 -1.788,-0.963 -1.788,-2.113 0,-1.206 0.687,-1.983 1.886,-1.983 0.509,0 0.956,0.097 1.262,0.235 l -0.136,0.664 c -0.269,-0.097 -0.568,-0.17 -0.981,-0.17 -0.583,0 -1.093,0.291 -1.108,1.052 z M 26.209,2.38 c 0.033,0.421 0.266,0.971 0.802,0.971 0.557,0 0.736,-0.526 0.727,-0.971 z M 29.546,0 h 0.938 v 2.38 c 0,0.113 0.018,0.235 0.041,0.324 0.089,0.291 0.324,0.542 0.648,0.542 0.437,0 0.607,-0.397 0.607,-0.89 V 0 h 0.94 v 2.412 c 0,0.114 0.015,0.235 0.04,0.332 0.096,0.283 0.324,0.502 0.63,0.502 0.447,0 0.624,-0.397 0.624,-1.004 V 0 h 0.94 v 2.396 c 0,1.174 -0.575,1.627 -1.216,1.627 -0.291,0 -0.517,-0.073 -0.727,-0.202 -0.17,-0.114 -0.325,-0.267 -0.454,-0.47 h -0.016 c -0.161,0.413 -0.527,0.672 -1.02,0.672 -0.583,0 -0.93,-0.324 -1.118,-0.623 H 30.38 l -0.04,0.542 h -0.826 c 0.015,-0.348 0.032,-0.704 0.032,-1.157 z m 7.515,3.942 H 36.10592 V -4e-4 H 37.061 Z m -0.477,0.559 c 0.324,0 0.535,0.226 0.535,0.526 0,0.307 -0.211,0.526 -0.527,0.526 -0.316,0 -0.535,-0.227 -0.535,-0.526 0,-0.3 0.211,-0.526 0.519,-0.526 z m 4.162,-3.675 c -0.17,-0.073 -0.381,-0.138 -0.673,-0.138 -0.631,0 -1.101,0.47 -1.101,1.279 0,0.729 0.398,1.295 1.101,1.295 0.309,0 0.519,-0.065 0.656,-0.137 l 0.162,0.728 c -0.194,0.089 -0.517,0.162 -0.841,0.162 -1.287,0 -2.048,-0.899 -2.048,-2.08 0,-1.247 0.745,-2.008 1.885,-2.008 0.437,0 0.801,0.097 0.98,0.178 l -0.121,0.721"
         style="fill:#000000;fill-opacity:1;fill-rule:nonzero;stroke:none"
         id="path1071" />
    </g>
    <g
       id="g1081"
       transform="matrix(0.35277777,0,0,-0.35277777,94.092016,145.27967)">
      <path
         d="m 0,0 h -1.829 v 1.433 h 1.933 v 0.801 h -2.889 v -5.456 h 3.004 v 0.802 h -2.048 v 1.635 H 0 Z m 1.16,-4.808 h 0.955 v 1.999 h 0.016 c 0.17,-0.283 0.526,-0.494 0.98,-0.494 0.816,0 1.627,0.664 1.627,2.097 0,1.214 -0.641,2.007 -1.515,2.007 -0.517,0 -0.93,-0.226 -1.189,-0.647 H 2.017 L 1.969,0.72 H 1.127 C 1.143,0.364 1.16,-0.049 1.16,-0.567 Z m 0.955,3.91 0.031,0.259 c 0.09,0.388 0.413,0.671 0.762,0.671 0.575,0 0.866,-0.558 0.866,-1.279 0,-0.752 -0.307,-1.303 -0.883,-1.303 -0.339,0 -0.646,0.227 -0.745,0.623 -0.023,0.09 -0.031,0.187 -0.031,0.292 z M 6.626,0.72 H 5.67101 V -3.2219 H 6.626 Z M 6.149,1.279 c 0.322,0 0.533,0.227 0.533,0.526 0,0.308 -0.211,0.526 -0.525,0.526 -0.316,0 -0.535,-0.226 -0.535,-0.526 0,-0.299 0.211,-0.526 0.518,-0.526 z m 4.016,1.206 V 0.316 h -0.016 c -0.162,0.283 -0.503,0.485 -0.98,0.485 -0.85,0 -1.603,-0.752 -1.603,-2.088 0,-1.206 0.648,-2.016 1.537,-2.016 0.511,0 0.932,0.268 1.143,0.656 h 0.015 l 0.048,-0.575 h 0.843 c -0.016,0.276 -0.032,0.713 -0.032,1.093 v 4.614 z m 0,-4.096 c 0,-0.097 -0.008,-0.194 -0.033,-0.275 -0.097,-0.429 -0.405,-0.648 -0.745,-0.648 -0.543,0 -0.857,0.527 -0.857,1.271 0,0.721 0.291,1.303 0.874,1.303 0.388,0 0.672,-0.307 0.745,-0.671 l 0.016,-0.251 z m 5.215,0.097 c 0.015,0.089 0.033,0.235 0.033,0.429 0,0.923 -0.421,1.886 -1.564,1.886 -1.14,0 -1.789,-0.963 -1.789,-2.112 0,-1.206 0.689,-1.983 1.888,-1.983 0.509,0 0.955,0.097 1.262,0.234 l -0.137,0.664 c -0.268,-0.097 -0.567,-0.17 -0.98,-0.17 -0.583,0 -1.093,0.291 -1.109,1.052 z m -2.396,0.672 c 0.032,0.421 0.267,0.972 0.802,0.972 0.558,0 0.735,-0.527 0.727,-0.972 z m 3.338,-2.38 h 0.938 v 2.38 c 0,0.113 0.017,0.235 0.041,0.324 0.088,0.291 0.324,0.542 0.648,0.542 0.437,0 0.606,-0.396 0.606,-0.89 v -2.356 h 0.94 v 2.413 c 0,0.113 0.016,0.234 0.04,0.331 0.097,0.284 0.324,0.502 0.632,0.502 0.445,0 0.623,-0.396 0.623,-1.003 v -2.243 h 0.938 v 2.396 c 0,1.174 -0.574,1.627 -1.214,1.627 -0.292,0 -0.517,-0.072 -0.728,-0.202 C 19.616,0.486 19.462,0.332 19.333,0.13 h -0.016 c -0.162,0.412 -0.527,0.671 -1.02,0.671 -0.583,0 -0.931,-0.323 -1.118,-0.623 h -0.024 l -0.04,0.542 h -0.826 c 0.015,-0.348 0.033,-0.704 0.033,-1.157 z M 23.837,0.72 H 22.88198 V -3.2219 H 23.837 Z m -0.478,0.559 c 0.323,0 0.534,0.227 0.534,0.526 0,0.308 -0.211,0.526 -0.526,0.526 -0.315,0 -0.534,-0.226 -0.534,-0.526 0,-0.299 0.211,-0.526 0.517,-0.526 z m 4.161,-3.675 c -0.17,-0.073 -0.38,-0.138 -0.672,-0.138 -0.63,0 -1.1,0.47 -1.1,1.279 0,0.729 0.396,1.295 1.1,1.295 0.309,0 0.519,-0.064 0.657,-0.137 l 0.162,0.728 c -0.195,0.089 -0.518,0.162 -0.842,0.162 -1.287,0 -2.048,-0.898 -2.048,-2.08 0,-1.247 0.744,-2.007 1.886,-2.007 0.436,0 0.802,0.097 0.979,0.178 l -0.122,0.72"
         style="fill:#000000;fill-opacity:1;fill-rule:nonzero;stroke:none"
         id="path1079" />
    </g>
    <g
       id="g1089"
       transform="matrix(0.35277777,0,0,-0.35277777,82.801011,168.23704)">
      <path
         d="m 0,0 c 0,-1.801 -1.462,-3.262 -3.263,-3.262 -1.801,0 -3.262,1.461 -3.262,3.262 0,1.801 1.461,3.261 3.262,3.261 C -1.462,3.261 0,1.801 0,0"
         style="fill:#ed6934;fill-opacity:1;fill-rule:nonzero;stroke:none"
         id="path1087" />
    </g>
    <path
       d="m 48.039034,142.74013 c 0,0 0.03986,0 0.05915,0.0174 0,0 0.01738,0.0143 0.02057,0.0368 0,0 0.003,0.0236 0.003,0.0847 0,0 0,0.10331 0.0081,0.16693 0,0 0.0069,0.0654 0.01738,0.10522 0,0 0.0081,0.0399 0.03683,0.0641 0,0 0.02742,0.0206 0.05293,0.0317 0,0 0.02551,0.008 0.08275,0.0225 l 2.291223,0.5754 c 0,0 0.06664,0.0194 0.100284,0.0194 0,0 0.03683,0 0.05118,-0.0212 0,0 0.01435,-0.0206 0.02057,-0.0891 0,0 0.01116,-0.1065 0.01116,-0.18494 0,0 0,-0.1022 0.01435,-0.11639 0,0 0.01435,-0.0113 0.03476,-0.0113 0,0 0.03874,0 0.05931,0.0175 0,0 0.01929,0.0161 0.02041,0.0305 0,0 0.0038,0.0131 0.0038,0.0386 l -0.01308,0.57555 0.01308,0.56599 c 0,0 0,0.0617 -0.0499,0.0617 0,0 -0.02981,0 -0.04783,-0.005 0,0 -0.01881,-0.007 -0.02567,-0.0274 0,0 -0.0073,-0.0225 -0.0073,-0.0399 0,0 -0.0019,-0.0156 -0.0019,-0.0654 0,0 0,-0.0859 -0.0032,-0.14205 0,0 -0.003,-0.0585 -0.01419,-0.10029 0,0 -0.01323,-0.0448 -0.02248,-0.0654 0,0 -0.01244,-0.0236 -0.03986,-0.0399 0,0 -0.03061,-0.0193 -0.05229,-0.0255 0,0 -0.0244,-0.008 -0.07222,-0.0193 l -2.319282,-0.57986 c 0,0 -0.03683,-0.008 -0.06728,-0.008 0,0 -0.05612,0 -0.06856,0.0666 0,0 -0.01308,0.0654 -0.01308,0.2299 0,0 0,0.051 -0.003,0.0716 0,0 -0.0013,0.0193 -0.01244,0.0349 0,0 -0.0094,0.0148 -0.03364,0.0148 0,0 -0.0287,0 -0.04799,-0.008 0,0 -0.02057,-0.008 -0.02679,-0.0225 0,0 -0.0062,-0.0174 -0.0081,-0.0287 0,0 -0.003,-0.01 -0.003,-0.0274 l 0.01244,-0.57221 -0.01244,-0.56742 c 0,0 0,-0.0654 0.0523,-0.0654 z"
       style="fill:#000000;fill-opacity:1;fill-rule:evenodd;stroke:none;stroke-width:0.159434"
       id="path7674" />
  </g>
</svg>
